<svg width="84" height="41" viewBox="0 0 84 41" fill="none" xmlns="http://www.w3.org/2000/svg">
<path d="M1.14833 20.0234L21.1713 0.000487356L20.0229 0.000487406L8.75231e-07 20.0234L1.14833 20.0234Z" fill="#F9B34A"/>
<path d="M11.5074 20.0229L31.5304 -9.25071e-07L30.3901 -8.75231e-07L10.3672 20.0229L11.5074 20.0229Z" fill="#F9B34A"/>
<path d="M21.8688 20.0229L41.8917 -9.25072e-07L40.7515 -8.75231e-07L20.7285 20.0229L21.8688 20.0229Z" fill="#F9B34A"/>
<path d="M32.2323 20.0229L52.2552 -9.25425e-07L51.1069 -8.75231e-07L31.084 20.0229L32.2323 20.0229Z" fill="#F9B34A"/>
<path d="M42.5953 20.0229L62.6182 -9.25071e-07L61.478 -8.75231e-07L41.4551 20.0229L42.5953 20.0229Z" fill="#F9B34A"/>
<path d="M52.9527 20.0229L72.9757 -9.25071e-07L71.8354 -8.75231e-07L51.8125 20.0229L52.9527 20.0229Z" fill="#F9B34A"/>
<path d="M63.3183 20.0229L83.3412 -9.25425e-07L82.1929 -8.75231e-07L62.1699 20.0229L63.3183 20.0229Z" fill="#F9B34A"/>
<path d="M1.14833 20.2163L21.1713 40.2393L20.0229 40.2393L8.75231e-07 20.2163L1.14833 20.2163Z" fill="#F9B34A"/>
<path d="M11.5074 20.2168L31.5304 40.2397L30.3901 40.2397L10.3672 20.2168L11.5074 20.2168Z" fill="#F9B34A"/>
<path d="M21.8688 20.2168L41.8917 40.2397L40.7515 40.2397L20.7285 20.2168L21.8688 20.2168Z" fill="#F9B34A"/>
<path d="M32.2323 20.2168L52.2552 40.2397L51.1069 40.2397L31.084 20.2168L32.2323 20.2168Z" fill="#F9B34A"/>
<path d="M42.5953 20.2168L62.6182 40.2397L61.478 40.2397L41.4551 20.2168L42.5953 20.2168Z" fill="#F9B34A"/>
<path d="M52.9527 20.2168L72.9757 40.2397L71.8354 40.2397L51.8125 20.2168L52.9527 20.2168Z" fill="#F9B34A"/>
<path d="M63.3183 20.2168L83.3412 40.2397L82.1929 40.2397L62.1699 20.2168L63.3183 20.2168Z" fill="#F9B34A"/>
</svg>
