<svg width="35" height="22" viewBox="0 0 35 22" fill="none" xmlns="http://www.w3.org/2000/svg">
<path d="M22.4827 1.45527H31.0753V3.57681H22.4827V1.45527ZM13.873 9.84937C15.7724 8.92449 16.7673 7.51743 16.7673 5.3433C16.7673 1.04324 13.6232 0 9.99233 0H0V21.5836H10.2723C14.1228 21.5836 17.7364 19.6987 17.7364 15.3154C17.7364 12.6065 16.4787 10.6033 13.873 9.84937ZM4.66022 3.68201H9.03186C10.7159 3.68201 12.2277 4.15979 12.2277 6.14983C12.2277 7.98207 11.0519 8.71847 9.38504 8.71847H4.66022V3.68201ZM9.63485 17.9191H4.65591V11.9753H9.73391C11.7841 11.9753 13.0805 12.8476 13.0805 15.0568C13.0805 17.2309 11.5343 17.9191 9.63485 17.9191ZM34.4348 13.996C34.4348 9.37159 31.7773 5.51863 26.9707 5.51863C22.2975 5.51863 19.119 9.09982 19.119 13.7944C19.119 18.6599 22.1296 22 26.9707 22C30.636 22 33.0092 20.3212 34.1505 16.74H30.4335C30.0287 18.0769 28.3834 18.7782 27.1042 18.7782C24.632 18.7782 23.3398 17.3054 23.3398 14.8026H34.4046C34.4176 14.5439 34.4348 14.2722 34.4348 13.996ZM23.3398 12.0936C23.4734 10.0379 24.8215 8.75354 26.8372 8.75354C28.9562 8.75354 30.0158 10.0203 30.201 12.0936H23.3398Z" fill="#D6483D"/>
</svg>
