<svg width="54" height="350" viewBox="0 0 54 350" fill="none" xmlns="http://www.w3.org/2000/svg">
<path d="M1.11591 2.23187C1.73223 2.23187 2.23189 1.73225 2.23189 1.11594C2.23189 0.499622 1.73223 0 1.11591 0C0.499598 0 0 0.499622 0 1.11594C0 1.73225 0.499598 2.23187 1.11591 2.23187Z" fill="#F99E4A"/>
<path d="M13.9948 2.23187C14.6111 2.23187 15.1108 1.73225 15.1108 1.11594C15.1108 0.499622 14.6111 0 13.9948 0C13.3785 0 12.8789 0.499622 12.8789 1.11594C12.8789 1.73225 13.3785 2.23187 13.9948 2.23187Z" fill="#F99E4A"/>
<path d="M26.8698 2.23187C27.4861 2.23187 27.9858 1.73225 27.9858 1.11594C27.9858 0.499622 27.4861 0 26.8698 0C26.2535 0 25.7539 0.499622 25.7539 1.11594C25.7539 1.73225 26.2535 2.23187 26.8698 2.23187Z" fill="#F99E4A"/>
<path d="M39.7448 2.23187C40.3611 2.23187 40.8608 1.73225 40.8608 1.11594C40.8608 0.499622 40.3611 0 39.7448 0C39.1285 0 38.6289 0.499622 38.6289 1.11594C38.6289 1.73225 39.1285 2.23187 39.7448 2.23187Z" fill="#F99E4A"/>
<path d="M1.11591 15.1078C1.73223 15.1078 2.23189 14.6082 2.23189 13.9919C2.23189 13.3756 1.73223 12.876 1.11591 12.876C0.499598 12.876 0 13.3756 0 13.9919C0 14.6082 0.499598 15.1078 1.11591 15.1078Z" fill="#F99E4A"/>
<path d="M13.9948 15.1078C14.6111 15.1078 15.1108 14.6082 15.1108 13.9919C15.1108 13.3756 14.6111 12.876 13.9948 12.876C13.3785 12.876 12.8789 13.3756 12.8789 13.9919C12.8789 14.6082 13.3785 15.1078 13.9948 15.1078Z" fill="#F99E4A"/>
<path d="M26.8698 15.1078C27.4861 15.1078 27.9858 14.6082 27.9858 13.9919C27.9858 13.3756 27.4861 12.876 26.8698 12.876C26.2535 12.876 25.7539 13.3756 25.7539 13.9919C25.7539 14.6082 26.2535 15.1078 26.8698 15.1078Z" fill="#F99E4A"/>
<path d="M39.7448 15.1078C40.3611 15.1078 40.8608 14.6082 40.8608 13.9919C40.8608 13.3756 40.3611 12.876 39.7448 12.876C39.1285 12.876 38.6289 13.3756 38.6289 13.9919C38.6289 14.6082 39.1285 15.1078 39.7448 15.1078Z" fill="#F99E4A"/>
<path d="M52.6218 15.1078C53.2381 15.1078 53.7377 14.6082 53.7377 13.9919C53.7377 13.3756 53.2381 12.876 52.6218 12.876C52.0055 12.876 51.5059 13.3756 51.5059 13.9919C51.5059 14.6082 52.0055 15.1078 52.6218 15.1078Z" fill="#F99E4A"/>
<path d="M1.11591 27.9843C1.73223 27.9843 2.23189 27.4847 2.23189 26.8684C2.23189 26.2521 1.73223 25.7524 1.11591 25.7524C0.499598 25.7524 0 26.2521 0 26.8684C0 27.4847 0.499598 27.9843 1.11591 27.9843Z" fill="#F99E4A"/>
<path d="M13.9948 27.9843C14.6111 27.9843 15.1108 27.4847 15.1108 26.8684C15.1108 26.2521 14.6111 25.7524 13.9948 25.7524C13.3785 25.7524 12.8789 26.2521 12.8789 26.8684C12.8789 27.4847 13.3785 27.9843 13.9948 27.9843Z" fill="#F99E4A"/>
<path d="M26.8698 27.9843C27.4861 27.9843 27.9858 27.4847 27.9858 26.8684C27.9858 26.2521 27.4861 25.7524 26.8698 25.7524C26.2535 25.7524 25.7539 26.2521 25.7539 26.8684C25.7539 27.4847 26.2535 27.9843 26.8698 27.9843Z" fill="#F99E4A"/>
<path d="M39.7448 27.9843C40.3611 27.9843 40.8608 27.4847 40.8608 26.8684C40.8608 26.2521 40.3611 25.7524 39.7448 25.7524C39.1285 25.7524 38.6289 26.2521 38.6289 26.8684C38.6289 27.4847 39.1285 27.9843 39.7448 27.9843Z" fill="#F99E4A"/>
<path d="M52.6218 27.9843C53.2381 27.9843 53.7377 27.4847 53.7377 26.8684C53.7377 26.2521 53.2381 25.7524 52.6218 25.7524C52.0055 25.7524 51.5059 26.2521 51.5059 26.8684C51.5059 27.4847 52.0055 27.9843 52.6218 27.9843Z" fill="#F99E4A"/>
<path d="M1.11591 40.8603C1.73223 40.8603 2.23189 40.3607 2.23189 39.7443C2.23189 39.128 1.73223 38.6284 1.11591 38.6284C0.499598 38.6284 0 39.128 0 39.7443C0 40.3607 0.499598 40.8603 1.11591 40.8603Z" fill="#F99E4A"/>
<path d="M13.9948 40.8603C14.6111 40.8603 15.1108 40.3607 15.1108 39.7443C15.1108 39.128 14.6111 38.6284 13.9948 38.6284C13.3785 38.6284 12.8789 39.128 12.8789 39.7443C12.8789 40.3607 13.3785 40.8603 13.9948 40.8603Z" fill="#F99E4A"/>
<path d="M26.8698 40.8603C27.4861 40.8603 27.9858 40.3607 27.9858 39.7443C27.9858 39.128 27.4861 38.6284 26.8698 38.6284C26.2535 38.6284 25.7539 39.128 25.7539 39.7443C25.7539 40.3607 26.2535 40.8603 26.8698 40.8603Z" fill="#F99E4A"/>
<path d="M39.7448 40.8603C40.3611 40.8603 40.8608 40.3607 40.8608 39.7443C40.8608 39.128 40.3611 38.6284 39.7448 38.6284C39.1285 38.6284 38.6289 39.128 38.6289 39.7443C38.6289 40.3607 39.1285 40.8603 39.7448 40.8603Z" fill="#F99E4A"/>
<path d="M52.6218 40.8603C53.2381 40.8603 53.7377 40.3607 53.7377 39.7443C53.7377 39.128 53.2381 38.6284 52.6218 38.6284C52.0055 38.6284 51.5059 39.128 51.5059 39.7443C51.5059 40.3607 52.0055 40.8603 52.6218 40.8603Z" fill="#F99E4A"/>
<path d="M1.11591 53.7367C1.73223 53.7367 2.23189 53.2371 2.23189 52.6208C2.23189 52.0045 1.73223 51.5049 1.11591 51.5049C0.499598 51.5049 0 52.0045 0 52.6208C0 53.2371 0.499598 53.7367 1.11591 53.7367Z" fill="#F99E4A"/>
<path d="M13.9948 53.7367C14.6111 53.7367 15.1108 53.2371 15.1108 52.6208C15.1108 52.0045 14.6111 51.5049 13.9948 51.5049C13.3785 51.5049 12.8789 52.0045 12.8789 52.6208C12.8789 53.2371 13.3785 53.7367 13.9948 53.7367Z" fill="#F99E4A"/>
<path d="M26.8698 53.7367C27.4861 53.7367 27.9858 53.2371 27.9858 52.6208C27.9858 52.0045 27.4861 51.5049 26.8698 51.5049C26.2535 51.5049 25.7539 52.0045 25.7539 52.6208C25.7539 53.2371 26.2535 53.7367 26.8698 53.7367Z" fill="#F99E4A"/>
<path d="M39.7448 53.7367C40.3611 53.7367 40.8608 53.2371 40.8608 52.6208C40.8608 52.0045 40.3611 51.5049 39.7448 51.5049C39.1285 51.5049 38.6289 52.0045 38.6289 52.6208C38.6289 53.2371 39.1285 53.7367 39.7448 53.7367Z" fill="#F99E4A"/>
<path d="M52.6218 53.7367C53.2381 53.7367 53.7377 53.2371 53.7377 52.6208C53.7377 52.0045 53.2381 51.5049 52.6218 51.5049C52.0055 51.5049 51.5059 52.0045 51.5059 52.6208C51.5059 53.2371 52.0055 53.7367 52.6218 53.7367Z" fill="#F99E4A"/>
<path d="M1.11591 66.6127C1.73223 66.6127 2.23189 66.1131 2.23189 65.4968C2.23189 64.8805 1.73223 64.3809 1.11591 64.3809C0.499598 64.3809 0 64.8805 0 65.4968C0 66.1131 0.499598 66.6127 1.11591 66.6127Z" fill="#F99E4A"/>
<path d="M13.9948 66.6127C14.6111 66.6127 15.1108 66.1131 15.1108 65.4968C15.1108 64.8805 14.6111 64.3809 13.9948 64.3809C13.3785 64.3809 12.8789 64.8805 12.8789 65.4968C12.8789 66.1131 13.3785 66.6127 13.9948 66.6127Z" fill="#F99E4A"/>
<path d="M26.8698 66.6127C27.4861 66.6127 27.9858 66.1131 27.9858 65.4968C27.9858 64.8805 27.4861 64.3809 26.8698 64.3809C26.2535 64.3809 25.7539 64.8805 25.7539 65.4968C25.7539 66.1131 26.2535 66.6127 26.8698 66.6127Z" fill="#F99E4A"/>
<path d="M39.7448 66.6127C40.3611 66.6127 40.8608 66.1131 40.8608 65.4968C40.8608 64.8805 40.3611 64.3809 39.7448 64.3809C39.1285 64.3809 38.6289 64.8805 38.6289 65.4968C38.6289 66.1131 39.1285 66.6127 39.7448 66.6127Z" fill="#F99E4A"/>
<path d="M52.6218 66.6127C53.2381 66.6127 53.7377 66.1131 53.7377 65.4968C53.7377 64.8805 53.2381 64.3809 52.6218 64.3809C52.0055 64.3809 51.5059 64.8805 51.5059 65.4968C51.5059 66.1131 52.0055 66.6127 52.6218 66.6127Z" fill="#F99E4A"/>
<path d="M1.11591 79.4887C1.73223 79.4887 2.23189 78.9891 2.23189 78.3728C2.23189 77.7564 1.73223 77.2568 1.11591 77.2568C0.499598 77.2568 0 77.7564 0 78.3728C0 78.9891 0.499598 79.4887 1.11591 79.4887Z" fill="#F99E4A"/>
<path d="M13.9948 79.4887C14.6111 79.4887 15.1108 78.9891 15.1108 78.3728C15.1108 77.7564 14.6111 77.2568 13.9948 77.2568C13.3785 77.2568 12.8789 77.7564 12.8789 78.3728C12.8789 78.9891 13.3785 79.4887 13.9948 79.4887Z" fill="#F99E4A"/>
<path d="M26.8698 79.4887C27.4861 79.4887 27.9858 78.9891 27.9858 78.3728C27.9858 77.7564 27.4861 77.2568 26.8698 77.2568C26.2535 77.2568 25.7539 77.7564 25.7539 78.3728C25.7539 78.9891 26.2535 79.4887 26.8698 79.4887Z" fill="#F99E4A"/>
<path d="M39.7448 79.4887C40.3611 79.4887 40.8608 78.9891 40.8608 78.3728C40.8608 77.7564 40.3611 77.2568 39.7448 77.2568C39.1285 77.2568 38.6289 77.7564 38.6289 78.3728C38.6289 78.9891 39.1285 79.4887 39.7448 79.4887Z" fill="#F99E4A"/>
<path d="M52.6218 79.4887C53.2381 79.4887 53.7377 78.9891 53.7377 78.3728C53.7377 77.7564 53.2381 77.2568 52.6218 77.2568C52.0055 77.2568 51.5059 77.7564 51.5059 78.3728C51.5059 78.9891 52.0055 79.4887 52.6218 79.4887Z" fill="#F99E4A"/>
<path d="M1.11591 92.3652C1.73223 92.3652 2.23189 91.8655 2.23189 91.2492C2.23189 90.6329 1.73223 90.1333 1.11591 90.1333C0.499598 90.1333 0 90.6329 0 91.2492C0 91.8655 0.499598 92.3652 1.11591 92.3652Z" fill="#F99E4A"/>
<path d="M13.9948 92.3652C14.6111 92.3652 15.1108 91.8655 15.1108 91.2492C15.1108 90.6329 14.6111 90.1333 13.9948 90.1333C13.3785 90.1333 12.8789 90.6329 12.8789 91.2492C12.8789 91.8655 13.3785 92.3652 13.9948 92.3652Z" fill="#F99E4A"/>
<path d="M26.8698 92.3652C27.4861 92.3652 27.9858 91.8655 27.9858 91.2492C27.9858 90.6329 27.4861 90.1333 26.8698 90.1333C26.2535 90.1333 25.7539 90.6329 25.7539 91.2492C25.7539 91.8655 26.2535 92.3652 26.8698 92.3652Z" fill="#F99E4A"/>
<path d="M39.7448 92.3652C40.3611 92.3652 40.8608 91.8655 40.8608 91.2492C40.8608 90.6329 40.3611 90.1333 39.7448 90.1333C39.1285 90.1333 38.6289 90.6329 38.6289 91.2492C38.6289 91.8655 39.1285 92.3652 39.7448 92.3652Z" fill="#F99E4A"/>
<path d="M52.6218 92.3652C53.2381 92.3652 53.7377 91.8655 53.7377 91.2492C53.7377 90.6329 53.2381 90.1333 52.6218 90.1333C52.0055 90.1333 51.5059 90.6329 51.5059 91.2492C51.5059 91.8655 52.0055 92.3652 52.6218 92.3652Z" fill="#F99E4A"/>
<path d="M1.11591 105.241C1.73223 105.241 2.23189 104.742 2.23189 104.125C2.23189 103.509 1.73223 103.009 1.11591 103.009C0.499598 103.009 0 103.509 0 104.125C0 104.742 0.499598 105.241 1.11591 105.241Z" fill="#F99E4A"/>
<path d="M13.9948 105.241C14.6111 105.241 15.1108 104.742 15.1108 104.125C15.1108 103.509 14.6111 103.009 13.9948 103.009C13.3785 103.009 12.8789 103.509 12.8789 104.125C12.8789 104.742 13.3785 105.241 13.9948 105.241Z" fill="#F99E4A"/>
<path d="M26.8698 105.241C27.4861 105.241 27.9858 104.742 27.9858 104.125C27.9858 103.509 27.4861 103.009 26.8698 103.009C26.2535 103.009 25.7539 103.509 25.7539 104.125C25.7539 104.742 26.2535 105.241 26.8698 105.241Z" fill="#F99E4A"/>
<path d="M39.7448 105.241C40.3611 105.241 40.8608 104.742 40.8608 104.125C40.8608 103.509 40.3611 103.009 39.7448 103.009C39.1285 103.009 38.6289 103.509 38.6289 104.125C38.6289 104.742 39.1285 105.241 39.7448 105.241Z" fill="#F99E4A"/>
<path d="M52.6218 105.241C53.2381 105.241 53.7377 104.742 53.7377 104.125C53.7377 103.509 53.2381 103.009 52.6218 103.009C52.0055 103.009 51.5059 103.509 51.5059 104.125C51.5059 104.742 52.0055 105.241 52.6218 105.241Z" fill="#F99E4A"/>
<path d="M1.11591 118.118C1.73223 118.118 2.23189 117.618 2.23189 117.002C2.23189 116.385 1.73223 115.886 1.11591 115.886C0.499598 115.886 0 116.385 0 117.002C0 117.618 0.499598 118.118 1.11591 118.118Z" fill="#F99E4A"/>
<path d="M13.9948 118.118C14.6111 118.118 15.1108 117.618 15.1108 117.002C15.1108 116.385 14.6111 115.886 13.9948 115.886C13.3785 115.886 12.8789 116.385 12.8789 117.002C12.8789 117.618 13.3785 118.118 13.9948 118.118Z" fill="#F99E4A"/>
<path d="M26.8698 118.118C27.4861 118.118 27.9858 117.618 27.9858 117.002C27.9858 116.385 27.4861 115.886 26.8698 115.886C26.2535 115.886 25.7539 116.385 25.7539 117.002C25.7539 117.618 26.2535 118.118 26.8698 118.118Z" fill="#F99E4A"/>
<path d="M39.7448 118.118C40.3611 118.118 40.8608 117.618 40.8608 117.002C40.8608 116.385 40.3611 115.886 39.7448 115.886C39.1285 115.886 38.6289 116.385 38.6289 117.002C38.6289 117.618 39.1285 118.118 39.7448 118.118Z" fill="#F99E4A"/>
<path d="M52.6218 118.118C53.2381 118.118 53.7377 117.618 53.7377 117.002C53.7377 116.385 53.2381 115.886 52.6218 115.886C52.0055 115.886 51.5059 116.385 51.5059 117.002C51.5059 117.618 52.0055 118.118 52.6218 118.118Z" fill="#F99E4A"/>
<path d="M1.11591 130.994C1.73223 130.994 2.23189 130.494 2.23189 129.878C2.23189 129.261 1.73223 128.762 1.11591 128.762C0.499598 128.762 0 129.261 0 129.878C0 130.494 0.499598 130.994 1.11591 130.994Z" fill="#F99E4A"/>
<path d="M13.9948 130.994C14.6111 130.994 15.1108 130.494 15.1108 129.878C15.1108 129.261 14.6111 128.762 13.9948 128.762C13.3785 128.762 12.8789 129.261 12.8789 129.878C12.8789 130.494 13.3785 130.994 13.9948 130.994Z" fill="#F99E4A"/>
<path d="M26.8698 130.994C27.4861 130.994 27.9858 130.494 27.9858 129.878C27.9858 129.261 27.4861 128.762 26.8698 128.762C26.2535 128.762 25.7539 129.261 25.7539 129.878C25.7539 130.494 26.2535 130.994 26.8698 130.994Z" fill="#F99E4A"/>
<path d="M39.7448 130.994C40.3611 130.994 40.8608 130.494 40.8608 129.878C40.8608 129.261 40.3611 128.762 39.7448 128.762C39.1285 128.762 38.6289 129.261 38.6289 129.878C38.6289 130.494 39.1285 130.994 39.7448 130.994Z" fill="#F99E4A"/>
<path d="M52.6218 130.994C53.2381 130.994 53.7377 130.494 53.7377 129.878C53.7377 129.261 53.2381 128.762 52.6218 128.762C52.0055 128.762 51.5059 129.261 51.5059 129.878C51.5059 130.494 52.0055 130.994 52.6218 130.994Z" fill="#F99E4A"/>
<path d="M1.11591 143.87C1.73223 143.87 2.23189 143.37 2.23189 142.754C2.23189 142.137 1.73223 141.638 1.11591 141.638C0.499598 141.638 0 142.137 0 142.754C0 143.37 0.499598 143.87 1.11591 143.87Z" fill="#F99E4A"/>
<path d="M13.9948 143.87C14.6111 143.87 15.1108 143.37 15.1108 142.754C15.1108 142.137 14.6111 141.638 13.9948 141.638C13.3785 141.638 12.8789 142.137 12.8789 142.754C12.8789 143.37 13.3785 143.87 13.9948 143.87Z" fill="#F99E4A"/>
<path d="M26.8698 143.87C27.4861 143.87 27.9858 143.37 27.9858 142.754C27.9858 142.137 27.4861 141.638 26.8698 141.638C26.2535 141.638 25.7539 142.137 25.7539 142.754C25.7539 143.37 26.2535 143.87 26.8698 143.87Z" fill="#F99E4A"/>
<path d="M39.7448 143.87C40.3611 143.87 40.8608 143.37 40.8608 142.754C40.8608 142.137 40.3611 141.638 39.7448 141.638C39.1285 141.638 38.6289 142.137 38.6289 142.754C38.6289 143.37 39.1285 143.87 39.7448 143.87Z" fill="#F99E4A"/>
<path d="M52.6218 143.87C53.2381 143.87 53.7377 143.37 53.7377 142.754C53.7377 142.137 53.2381 141.638 52.6218 141.638C52.0055 141.638 51.5059 142.137 51.5059 142.754C51.5059 143.37 52.0055 143.87 52.6218 143.87Z" fill="#F99E4A"/>
<path d="M1.11591 156.746C1.73223 156.746 2.23189 156.246 2.23189 155.63C2.23189 155.014 1.73223 154.514 1.11591 154.514C0.499598 154.514 0 155.014 0 155.63C0 156.246 0.499598 156.746 1.11591 156.746Z" fill="#F99E4A"/>
<path d="M13.9948 156.746C14.6111 156.746 15.1108 156.246 15.1108 155.63C15.1108 155.014 14.6111 154.514 13.9948 154.514C13.3785 154.514 12.8789 155.014 12.8789 155.63C12.8789 156.246 13.3785 156.746 13.9948 156.746Z" fill="#F99E4A"/>
<path d="M26.8698 156.746C27.4861 156.746 27.9858 156.246 27.9858 155.63C27.9858 155.014 27.4861 154.514 26.8698 154.514C26.2535 154.514 25.7539 155.014 25.7539 155.63C25.7539 156.246 26.2535 156.746 26.8698 156.746Z" fill="#F99E4A"/>
<path d="M39.7448 156.746C40.3611 156.746 40.8608 156.246 40.8608 155.63C40.8608 155.014 40.3611 154.514 39.7448 154.514C39.1285 154.514 38.6289 155.014 38.6289 155.63C38.6289 156.246 39.1285 156.746 39.7448 156.746Z" fill="#F99E4A"/>
<path d="M52.6218 156.746C53.2381 156.746 53.7377 156.246 53.7377 155.63C53.7377 155.014 53.2381 154.514 52.6218 154.514C52.0055 154.514 51.5059 155.014 51.5059 155.63C51.5059 156.246 52.0055 156.746 52.6218 156.746Z" fill="#F99E4A"/>
<path d="M1.11591 169.622C1.73223 169.622 2.23189 169.122 2.23189 168.506C2.23189 167.89 1.73223 167.39 1.11591 167.39C0.499598 167.39 0 167.89 0 168.506C0 169.122 0.499598 169.622 1.11591 169.622Z" fill="#F99E4A"/>
<path d="M13.9948 169.622C14.6111 169.622 15.1108 169.122 15.1108 168.506C15.1108 167.89 14.6111 167.39 13.9948 167.39C13.3785 167.39 12.8789 167.89 12.8789 168.506C12.8789 169.122 13.3785 169.622 13.9948 169.622Z" fill="#F99E4A"/>
<path d="M26.8698 169.622C27.4861 169.622 27.9858 169.122 27.9858 168.506C27.9858 167.89 27.4861 167.39 26.8698 167.39C26.2535 167.39 25.7539 167.89 25.7539 168.506C25.7539 169.122 26.2535 169.622 26.8698 169.622Z" fill="#F99E4A"/>
<path d="M39.7448 169.622C40.3611 169.622 40.8608 169.122 40.8608 168.506C40.8608 167.89 40.3611 167.39 39.7448 167.39C39.1285 167.39 38.6289 167.89 38.6289 168.506C38.6289 169.122 39.1285 169.622 39.7448 169.622Z" fill="#F99E4A"/>
<path d="M52.6218 169.622C53.2381 169.622 53.7377 169.122 53.7377 168.506C53.7377 167.89 53.2381 167.39 52.6218 167.39C52.0055 167.39 51.5059 167.89 51.5059 168.506C51.5059 169.122 52.0055 169.622 52.6218 169.622Z" fill="#F99E4A"/>
<path d="M1.11591 182.498C1.73223 182.498 2.23189 181.999 2.23189 181.383C2.23189 180.766 1.73223 180.267 1.11591 180.267C0.499598 180.267 0 180.766 0 181.383C0 181.999 0.499598 182.498 1.11591 182.498Z" fill="#F99E4A"/>
<path d="M13.9948 182.498C14.6111 182.498 15.1108 181.999 15.1108 181.383C15.1108 180.766 14.6111 180.267 13.9948 180.267C13.3785 180.267 12.8789 180.766 12.8789 181.383C12.8789 181.999 13.3785 182.498 13.9948 182.498Z" fill="#F99E4A"/>
<path d="M26.8698 182.498C27.4861 182.498 27.9858 181.999 27.9858 181.383C27.9858 180.766 27.4861 180.267 26.8698 180.267C26.2535 180.267 25.7539 180.766 25.7539 181.383C25.7539 181.999 26.2535 182.498 26.8698 182.498Z" fill="#F99E4A"/>
<path d="M39.7448 182.498C40.3611 182.498 40.8608 181.999 40.8608 181.383C40.8608 180.766 40.3611 180.267 39.7448 180.267C39.1285 180.267 38.6289 180.766 38.6289 181.383C38.6289 181.999 39.1285 182.498 39.7448 182.498Z" fill="#F99E4A"/>
<path d="M52.6218 182.498C53.2381 182.498 53.7377 181.999 53.7377 181.383C53.7377 180.766 53.2381 180.267 52.6218 180.267C52.0055 180.267 51.5059 180.766 51.5059 181.383C51.5059 181.999 52.0055 182.498 52.6218 182.498Z" fill="#F99E4A"/>
<path d="M1.11591 195.374C1.73223 195.374 2.23189 194.875 2.23189 194.259C2.23189 193.642 1.73223 193.143 1.11591 193.143C0.499598 193.143 0 193.642 0 194.259C0 194.875 0.499598 195.374 1.11591 195.374Z" fill="#F99E4A"/>
<path d="M13.9948 195.374C14.6111 195.374 15.1108 194.875 15.1108 194.259C15.1108 193.642 14.6111 193.143 13.9948 193.143C13.3785 193.143 12.8789 193.642 12.8789 194.259C12.8789 194.875 13.3785 195.374 13.9948 195.374Z" fill="#F99E4A"/>
<path d="M26.8698 195.374C27.4861 195.374 27.9858 194.875 27.9858 194.259C27.9858 193.642 27.4861 193.143 26.8698 193.143C26.2535 193.143 25.7539 193.642 25.7539 194.259C25.7539 194.875 26.2535 195.374 26.8698 195.374Z" fill="#F99E4A"/>
<path d="M39.7448 195.374C40.3611 195.374 40.8608 194.875 40.8608 194.259C40.8608 193.642 40.3611 193.143 39.7448 193.143C39.1285 193.143 38.6289 193.642 38.6289 194.259C38.6289 194.875 39.1285 195.374 39.7448 195.374Z" fill="#F99E4A"/>
<path d="M52.6218 195.374C53.2381 195.374 53.7377 194.875 53.7377 194.259C53.7377 193.642 53.2381 193.143 52.6218 193.143C52.0055 193.143 51.5059 193.642 51.5059 194.259C51.5059 194.875 52.0055 195.374 52.6218 195.374Z" fill="#F99E4A"/>
<path d="M1.11591 208.25C1.73223 208.25 2.23189 207.751 2.23189 207.134C2.23189 206.518 1.73223 206.019 1.11591 206.019C0.499598 206.019 0 206.518 0 207.134C0 207.751 0.499598 208.25 1.11591 208.25Z" fill="#F99E4A"/>
<path d="M13.9948 208.25C14.6111 208.25 15.1108 207.751 15.1108 207.134C15.1108 206.518 14.6111 206.019 13.9948 206.019C13.3785 206.019 12.8789 206.518 12.8789 207.134C12.8789 207.751 13.3785 208.25 13.9948 208.25Z" fill="#F99E4A"/>
<path d="M26.8698 208.25C27.4861 208.25 27.9858 207.751 27.9858 207.134C27.9858 206.518 27.4861 206.019 26.8698 206.019C26.2535 206.019 25.7539 206.518 25.7539 207.134C25.7539 207.751 26.2535 208.25 26.8698 208.25Z" fill="#F99E4A"/>
<path d="M39.7448 208.25C40.3611 208.25 40.8608 207.751 40.8608 207.134C40.8608 206.518 40.3611 206.019 39.7448 206.019C39.1285 206.019 38.6289 206.518 38.6289 207.134C38.6289 207.751 39.1285 208.25 39.7448 208.25Z" fill="#F99E4A"/>
<path d="M52.6218 208.25C53.2381 208.25 53.7377 207.751 53.7377 207.134C53.7377 206.518 53.2381 206.019 52.6218 206.019C52.0055 206.019 51.5059 206.518 51.5059 207.134C51.5059 207.751 52.0055 208.25 52.6218 208.25Z" fill="#F99E4A"/>
<path d="M1.11591 221.126C1.73223 221.126 2.23189 220.627 2.23189 220.01C2.23189 219.394 1.73223 218.895 1.11591 218.895C0.499598 218.895 0 219.394 0 220.01C0 220.627 0.499598 221.126 1.11591 221.126Z" fill="#F99E4A"/>
<path d="M13.9948 221.126C14.6111 221.126 15.1108 220.627 15.1108 220.01C15.1108 219.394 14.6111 218.895 13.9948 218.895C13.3785 218.895 12.8789 219.394 12.8789 220.01C12.8789 220.627 13.3785 221.126 13.9948 221.126Z" fill="#F99E4A"/>
<path d="M26.8698 221.126C27.4861 221.126 27.9858 220.627 27.9858 220.01C27.9858 219.394 27.4861 218.895 26.8698 218.895C26.2535 218.895 25.7539 219.394 25.7539 220.01C25.7539 220.627 26.2535 221.126 26.8698 221.126Z" fill="#F99E4A"/>
<path d="M39.7448 221.126C40.3611 221.126 40.8608 220.627 40.8608 220.01C40.8608 219.394 40.3611 218.895 39.7448 218.895C39.1285 218.895 38.6289 219.394 38.6289 220.01C38.6289 220.627 39.1285 221.126 39.7448 221.126Z" fill="#F99E4A"/>
<path d="M52.6218 221.126C53.2381 221.126 53.7377 220.627 53.7377 220.01C53.7377 219.394 53.2381 218.895 52.6218 218.895C52.0055 218.895 51.5059 219.394 51.5059 220.01C51.5059 220.627 52.0055 221.126 52.6218 221.126Z" fill="#F99E4A"/>
<path d="M1.11591 234.003C1.73223 234.003 2.23189 233.504 2.23189 232.887C2.23189 232.271 1.73223 231.771 1.11591 231.771C0.499598 231.771 0 232.271 0 232.887C0 233.504 0.499598 234.003 1.11591 234.003Z" fill="#F99E4A"/>
<path d="M13.9948 234.003C14.6111 234.003 15.1108 233.504 15.1108 232.887C15.1108 232.271 14.6111 231.771 13.9948 231.771C13.3785 231.771 12.8789 232.271 12.8789 232.887C12.8789 233.504 13.3785 234.003 13.9948 234.003Z" fill="#F99E4A"/>
<path d="M26.8698 234.003C27.4861 234.003 27.9858 233.504 27.9858 232.887C27.9858 232.271 27.4861 231.771 26.8698 231.771C26.2535 231.771 25.7539 232.271 25.7539 232.887C25.7539 233.504 26.2535 234.003 26.8698 234.003Z" fill="#F99E4A"/>
<path d="M39.7448 234.003C40.3611 234.003 40.8608 233.504 40.8608 232.887C40.8608 232.271 40.3611 231.771 39.7448 231.771C39.1285 231.771 38.6289 232.271 38.6289 232.887C38.6289 233.504 39.1285 234.003 39.7448 234.003Z" fill="#F99E4A"/>
<path d="M52.6218 234.003C53.2381 234.003 53.7377 233.504 53.7377 232.887C53.7377 232.271 53.2381 231.771 52.6218 231.771C52.0055 231.771 51.5059 232.271 51.5059 232.887C51.5059 233.504 52.0055 234.003 52.6218 234.003Z" fill="#F99E4A"/>
<path d="M1.11591 246.879C1.73223 246.879 2.23189 246.38 2.23189 245.763C2.23189 245.147 1.73223 244.647 1.11591 244.647C0.499598 244.647 0 245.147 0 245.763C0 246.38 0.499598 246.879 1.11591 246.879Z" fill="#F99E4A"/>
<path d="M13.9948 246.879C14.6111 246.879 15.1108 246.38 15.1108 245.763C15.1108 245.147 14.6111 244.647 13.9948 244.647C13.3785 244.647 12.8789 245.147 12.8789 245.763C12.8789 246.38 13.3785 246.879 13.9948 246.879Z" fill="#F99E4A"/>
<path d="M26.8698 246.879C27.4861 246.879 27.9858 246.38 27.9858 245.763C27.9858 245.147 27.4861 244.647 26.8698 244.647C26.2535 244.647 25.7539 245.147 25.7539 245.763C25.7539 246.38 26.2535 246.879 26.8698 246.879Z" fill="#F99E4A"/>
<path d="M39.7448 246.879C40.3611 246.879 40.8608 246.38 40.8608 245.763C40.8608 245.147 40.3611 244.647 39.7448 244.647C39.1285 244.647 38.6289 245.147 38.6289 245.763C38.6289 246.38 39.1285 246.879 39.7448 246.879Z" fill="#F99E4A"/>
<path d="M52.6218 246.879C53.2381 246.879 53.7377 246.38 53.7377 245.763C53.7377 245.147 53.2381 244.647 52.6218 244.647C52.0055 244.647 51.5059 245.147 51.5059 245.763C51.5059 246.38 52.0055 246.879 52.6218 246.879Z" fill="#F99E4A"/>
<path d="M1.11591 259.755C1.73223 259.755 2.23189 259.256 2.23189 258.639C2.23189 258.023 1.73223 257.523 1.11591 257.523C0.499598 257.523 0 258.023 0 258.639C0 259.256 0.499598 259.755 1.11591 259.755Z" fill="#F99E4A"/>
<path d="M13.9948 259.755C14.6111 259.755 15.1108 259.256 15.1108 258.639C15.1108 258.023 14.6111 257.523 13.9948 257.523C13.3785 257.523 12.8789 258.023 12.8789 258.639C12.8789 259.256 13.3785 259.755 13.9948 259.755Z" fill="#F99E4A"/>
<path d="M26.8698 259.755C27.4861 259.755 27.9858 259.256 27.9858 258.639C27.9858 258.023 27.4861 257.523 26.8698 257.523C26.2535 257.523 25.7539 258.023 25.7539 258.639C25.7539 259.256 26.2535 259.755 26.8698 259.755Z" fill="#F99E4A"/>
<path d="M39.7448 259.755C40.3611 259.755 40.8608 259.256 40.8608 258.639C40.8608 258.023 40.3611 257.523 39.7448 257.523C39.1285 257.523 38.6289 258.023 38.6289 258.639C38.6289 259.256 39.1285 259.755 39.7448 259.755Z" fill="#F99E4A"/>
<path d="M52.6218 259.755C53.2381 259.755 53.7377 259.256 53.7377 258.639C53.7377 258.023 53.2381 257.523 52.6218 257.523C52.0055 257.523 51.5059 258.023 51.5059 258.639C51.5059 259.256 52.0055 259.755 52.6218 259.755Z" fill="#F99E4A"/>
<path d="M1.11591 272.631C1.73223 272.631 2.23189 272.132 2.23189 271.515C2.23189 270.899 1.73223 270.399 1.11591 270.399C0.499598 270.399 0 270.899 0 271.515C0 272.132 0.499598 272.631 1.11591 272.631Z" fill="#F99E4A"/>
<path d="M13.9948 272.631C14.6111 272.631 15.1108 272.132 15.1108 271.515C15.1108 270.899 14.6111 270.399 13.9948 270.399C13.3785 270.399 12.8789 270.899 12.8789 271.515C12.8789 272.132 13.3785 272.631 13.9948 272.631Z" fill="#F99E4A"/>
<path d="M26.8698 272.631C27.4861 272.631 27.9858 272.132 27.9858 271.515C27.9858 270.899 27.4861 270.399 26.8698 270.399C26.2535 270.399 25.7539 270.899 25.7539 271.515C25.7539 272.132 26.2535 272.631 26.8698 272.631Z" fill="#F99E4A"/>
<path d="M39.7448 272.631C40.3611 272.631 40.8608 272.132 40.8608 271.515C40.8608 270.899 40.3611 270.399 39.7448 270.399C39.1285 270.399 38.6289 270.899 38.6289 271.515C38.6289 272.132 39.1285 272.631 39.7448 272.631Z" fill="#F99E4A"/>
<path d="M52.6218 272.631C53.2381 272.631 53.7377 272.132 53.7377 271.515C53.7377 270.899 53.2381 270.399 52.6218 270.399C52.0055 270.399 51.5059 270.899 51.5059 271.515C51.5059 272.132 52.0055 272.631 52.6218 272.631Z" fill="#F99E4A"/>
<path d="M1.11591 285.507C1.73223 285.507 2.23189 285.008 2.23189 284.391C2.23189 283.775 1.73223 283.275 1.11591 283.275C0.499598 283.275 0 283.775 0 284.391C0 285.008 0.499598 285.507 1.11591 285.507Z" fill="#F99E4A"/>
<path d="M13.9948 285.507C14.6111 285.507 15.1108 285.008 15.1108 284.391C15.1108 283.775 14.6111 283.275 13.9948 283.275C13.3785 283.275 12.8789 283.775 12.8789 284.391C12.8789 285.008 13.3785 285.507 13.9948 285.507Z" fill="#F99E4A"/>
<path d="M26.8698 285.507C27.4861 285.507 27.9858 285.008 27.9858 284.391C27.9858 283.775 27.4861 283.275 26.8698 283.275C26.2535 283.275 25.7539 283.775 25.7539 284.391C25.7539 285.008 26.2535 285.507 26.8698 285.507Z" fill="#F99E4A"/>
<path d="M39.7448 285.507C40.3611 285.507 40.8608 285.008 40.8608 284.391C40.8608 283.775 40.3611 283.275 39.7448 283.275C39.1285 283.275 38.6289 283.775 38.6289 284.391C38.6289 285.008 39.1285 285.507 39.7448 285.507Z" fill="#F99E4A"/>
<path d="M52.6218 285.507C53.2381 285.507 53.7377 285.008 53.7377 284.391C53.7377 283.775 53.2381 283.275 52.6218 283.275C52.0055 283.275 51.5059 283.775 51.5059 284.391C51.5059 285.008 52.0055 285.507 52.6218 285.507Z" fill="#F99E4A"/>
<path d="M1.11591 298.384C1.73223 298.384 2.23189 297.885 2.23189 297.268C2.23189 296.652 1.73223 296.152 1.11591 296.152C0.499598 296.152 0 296.652 0 297.268C0 297.885 0.499598 298.384 1.11591 298.384Z" fill="#F99E4A"/>
<path d="M13.9948 298.384C14.6111 298.384 15.1108 297.885 15.1108 297.268C15.1108 296.652 14.6111 296.152 13.9948 296.152C13.3785 296.152 12.8789 296.652 12.8789 297.268C12.8789 297.885 13.3785 298.384 13.9948 298.384Z" fill="#F99E4A"/>
<path d="M26.8698 298.384C27.4861 298.384 27.9858 297.885 27.9858 297.268C27.9858 296.652 27.4861 296.152 26.8698 296.152C26.2535 296.152 25.7539 296.652 25.7539 297.268C25.7539 297.885 26.2535 298.384 26.8698 298.384Z" fill="#F99E4A"/>
<path d="M39.7448 298.384C40.3611 298.384 40.8608 297.885 40.8608 297.268C40.8608 296.652 40.3611 296.152 39.7448 296.152C39.1285 296.152 38.6289 296.652 38.6289 297.268C38.6289 297.885 39.1285 298.384 39.7448 298.384Z" fill="#F99E4A"/>
<path d="M52.6218 298.384C53.2381 298.384 53.7377 297.885 53.7377 297.268C53.7377 296.652 53.2381 296.152 52.6218 296.152C52.0055 296.152 51.5059 296.652 51.5059 297.268C51.5059 297.885 52.0055 298.384 52.6218 298.384Z" fill="#F99E4A"/>
<path d="M1.11591 311.26C1.73223 311.26 2.23189 310.761 2.23189 310.144C2.23189 309.528 1.73223 309.028 1.11591 309.028C0.499598 309.028 0 309.528 0 310.144C0 310.761 0.499598 311.26 1.11591 311.26Z" fill="#F99E4A"/>
<path d="M13.9948 311.26C14.6111 311.26 15.1108 310.761 15.1108 310.144C15.1108 309.528 14.6111 309.028 13.9948 309.028C13.3785 309.028 12.8789 309.528 12.8789 310.144C12.8789 310.761 13.3785 311.26 13.9948 311.26Z" fill="#F99E4A"/>
<path d="M26.8698 311.26C27.4861 311.26 27.9858 310.761 27.9858 310.144C27.9858 309.528 27.4861 309.028 26.8698 309.028C26.2535 309.028 25.7539 309.528 25.7539 310.144C25.7539 310.761 26.2535 311.26 26.8698 311.26Z" fill="#F99E4A"/>
<path d="M39.7448 311.26C40.3611 311.26 40.8608 310.761 40.8608 310.144C40.8608 309.528 40.3611 309.028 39.7448 309.028C39.1285 309.028 38.6289 309.528 38.6289 310.144C38.6289 310.761 39.1285 311.26 39.7448 311.26Z" fill="#F99E4A"/>
<path d="M52.6218 311.26C53.2381 311.26 53.7377 310.761 53.7377 310.144C53.7377 309.528 53.2381 309.028 52.6218 309.028C52.0055 309.028 51.5059 309.528 51.5059 310.144C51.5059 310.761 52.0055 311.26 52.6218 311.26Z" fill="#F99E4A"/>
<path d="M1.11591 324.136C1.73223 324.136 2.23189 323.637 2.23189 323.02C2.23189 322.404 1.73223 321.904 1.11591 321.904C0.499598 321.904 0 322.404 0 323.02C0 323.637 0.499598 324.136 1.11591 324.136Z" fill="#F99E4A"/>
<path d="M13.9948 324.136C14.6111 324.136 15.1108 323.637 15.1108 323.02C15.1108 322.404 14.6111 321.904 13.9948 321.904C13.3785 321.904 12.8789 322.404 12.8789 323.02C12.8789 323.637 13.3785 324.136 13.9948 324.136Z" fill="#F99E4A"/>
<path d="M26.8698 324.136C27.4861 324.136 27.9858 323.637 27.9858 323.02C27.9858 322.404 27.4861 321.904 26.8698 321.904C26.2535 321.904 25.7539 322.404 25.7539 323.02C25.7539 323.637 26.2535 324.136 26.8698 324.136Z" fill="#F99E4A"/>
<path d="M39.7448 324.136C40.3611 324.136 40.8608 323.637 40.8608 323.02C40.8608 322.404 40.3611 321.904 39.7448 321.904C39.1285 321.904 38.6289 322.404 38.6289 323.02C38.6289 323.637 39.1285 324.136 39.7448 324.136Z" fill="#F99E4A"/>
<path d="M52.6218 324.136C53.2381 324.136 53.7377 323.637 53.7377 323.02C53.7377 322.404 53.2381 321.904 52.6218 321.904C52.0055 321.904 51.5059 322.404 51.5059 323.02C51.5059 323.637 52.0055 324.136 52.6218 324.136Z" fill="#F99E4A"/>
<path d="M1.11591 337.012C1.73223 337.012 2.23189 336.513 2.23189 335.896C2.23189 335.28 1.73223 334.78 1.11591 334.78C0.499598 334.78 0 335.28 0 335.896C0 336.513 0.499598 337.012 1.11591 337.012Z" fill="#F99E4A"/>
<path d="M13.9948 337.012C14.6111 337.012 15.1108 336.513 15.1108 335.896C15.1108 335.28 14.6111 334.78 13.9948 334.78C13.3785 334.78 12.8789 335.28 12.8789 335.896C12.8789 336.513 13.3785 337.012 13.9948 337.012Z" fill="#F99E4A"/>
<path d="M26.8698 337.012C27.4861 337.012 27.9858 336.513 27.9858 335.896C27.9858 335.28 27.4861 334.78 26.8698 334.78C26.2535 334.78 25.7539 335.28 25.7539 335.896C25.7539 336.513 26.2535 337.012 26.8698 337.012Z" fill="#F99E4A"/>
<path d="M39.7448 337.012C40.3611 337.012 40.8608 336.513 40.8608 335.896C40.8608 335.28 40.3611 334.78 39.7448 334.78C39.1285 334.78 38.6289 335.28 38.6289 335.896C38.6289 336.513 39.1285 337.012 39.7448 337.012Z" fill="#F99E4A"/>
<path d="M52.6218 337.012C53.2381 337.012 53.7377 336.513 53.7377 335.896C53.7377 335.28 53.2381 334.78 52.6218 334.78C52.0055 334.78 51.5059 335.28 51.5059 335.896C51.5059 336.513 52.0055 337.012 52.6218 337.012Z" fill="#F99E4A"/>
<path d="M1.11591 349.888C1.73223 349.888 2.23189 349.389 2.23189 348.772C2.23189 348.156 1.73223 347.656 1.11591 347.656C0.499598 347.656 0 348.156 0 348.772C0 349.389 0.499598 349.888 1.11591 349.888Z" fill="#F99E4A"/>
<path d="M13.9948 349.888C14.6111 349.888 15.1108 349.389 15.1108 348.772C15.1108 348.156 14.6111 347.656 13.9948 347.656C13.3785 347.656 12.8789 348.156 12.8789 348.772C12.8789 349.389 13.3785 349.888 13.9948 349.888Z" fill="#F99E4A"/>
<path d="M26.8698 349.888C27.4861 349.888 27.9858 349.389 27.9858 348.772C27.9858 348.156 27.4861 347.656 26.8698 347.656C26.2535 347.656 25.7539 348.156 25.7539 348.772C25.7539 349.389 26.2535 349.888 26.8698 349.888Z" fill="#F99E4A"/>
<path d="M39.7448 349.888C40.3611 349.888 40.8608 349.389 40.8608 348.772C40.8608 348.156 40.3611 347.656 39.7448 347.656C39.1285 347.656 38.6289 348.156 38.6289 348.772C38.6289 349.389 39.1285 349.888 39.7448 349.888Z" fill="#F99E4A"/>
<path d="M52.6218 349.888C53.2381 349.888 53.7377 349.389 53.7377 348.772C53.7377 348.156 53.2381 347.656 52.6218 347.656C52.0055 347.656 51.5059 348.156 51.5059 348.772C51.5059 349.389 52.0055 349.888 52.6218 349.888Z" fill="#F99E4A"/>
</svg>
