<svg width="24" height="24" viewBox="0 0 24 24" fill="none" xmlns="http://www.w3.org/2000/svg">
<path fill-rule="evenodd" clip-rule="evenodd" d="M24 12C24 12.8127 23.9174 13.6242 23.7551 14.4153C23.5969 15.1876 23.3625 15.9457 23.0554 16.6705C22.7555 17.3825 22.3834 18.0686 21.9486 18.7084C21.5203 19.3442 21.0268 19.9407 20.4848 20.4844C19.9416 21.0258 19.3439 21.5185 18.7093 21.9492C18.0683 22.3816 17.3822 22.7537 16.6708 23.0555C15.946 23.3613 15.1871 23.5957 14.4165 23.7539C13.6255 23.9168 12.8122 24 11.9995 24C11.1861 24 10.3728 23.9168 9.58294 23.7539C8.81124 23.5957 8.0524 23.3613 7.32814 23.0555C6.61679 22.7537 5.93 22.3816 5.28897 21.9492C4.65437 21.5186 4.05668 21.0258 3.51466 20.4844C2.97207 19.9407 2.47866 19.3442 2.04974 18.7084C1.61729 18.0686 1.24459 17.3824 0.943424 16.6705C0.636339 15.9457 0.401399 15.1875 0.242596 14.4153C0.0820552 13.6242 0 12.8127 0 12C0 11.1867 0.0820082 10.3735 0.242643 9.58415C0.401446 8.81188 0.636386 8.05252 0.943471 7.32891C1.24464 6.61643 1.61734 5.92973 2.04978 5.28985C2.47871 4.65355 2.97212 4.0582 3.51471 3.51386C4.05673 2.97242 4.65441 2.48087 5.28902 2.0508C5.93005 1.61659 6.61683 1.24457 7.32818 0.942198C8.05245 0.635693 8.81124 0.400766 9.58299 0.243757C10.3729 0.0820507 11.1862 0 11.9995 0C12.8122 0 13.6255 0.0820507 14.4166 0.243757C15.1871 0.400813 15.946 0.63574 16.6708 0.942198C17.3822 1.24452 18.0684 1.61659 18.7094 2.0508C19.344 2.48087 19.9417 2.97242 20.4849 3.51386C21.0269 4.0582 21.5203 4.65355 21.9486 5.28985C22.3834 5.92973 22.7555 6.61647 23.0554 7.32891C23.3625 8.05252 23.5969 8.81188 23.7551 9.58415C23.9174 10.3735 24 11.1867 24 12ZM7.62692 2.73104C4.76912 4.08049 2.6362 6.71367 1.97112 9.88712C2.24129 9.88946 6.51182 9.94338 11.4322 8.63611C9.65847 5.48493 7.76346 2.91332 7.62692 2.73104ZM12.2812 10.2141C7.00462 11.7937 1.94124 11.6801 1.75961 11.6731C1.75665 11.7832 1.75139 11.8898 1.75139 12C1.75139 14.6326 2.7446 17.0326 4.37711 18.8473C4.37359 18.842 7.17807 13.8668 12.7084 12.0785C12.842 12.034 12.978 11.9941 13.1127 11.9555C12.8555 11.3731 12.5748 10.7895 12.2812 10.2141ZM18.7674 4.30899C16.9631 2.71814 14.5941 1.75316 11.9994 1.75316C11.1668 1.75316 10.3587 1.85395 9.58464 2.04027C9.73814 2.24655 11.6631 4.80003 13.4157 8.01795C17.2825 6.56837 18.7421 4.34647 18.7674 4.30899ZM13.8113 13.6535C13.7885 13.6611 13.7656 13.6676 13.7433 13.6758C7.69682 15.7836 5.72225 20.0314 5.70089 20.0777C7.44066 21.4306 9.6228 22.2469 11.9995 22.2469C13.4187 22.2469 14.7705 21.9579 16.0004 21.4348C15.8487 20.5394 15.2533 17.4012 13.8113 13.6535ZM17.7261 20.4984C20.0272 18.9457 21.6614 16.4801 22.1173 13.6242C21.9064 13.5562 19.0392 12.6486 15.7314 13.1789C17.0756 16.8727 17.6218 19.8809 17.7261 20.4984ZM14.2045 9.54492C14.4423 10.0336 14.6727 10.531 14.8854 11.0309C14.961 11.2102 15.0348 11.386 15.1069 11.5617C18.6273 11.1187 22.0957 11.864 22.244 11.8945C22.2205 9.46522 21.3515 7.23571 19.9136 5.49025C19.8942 5.51772 18.2506 7.89254 14.2045 9.54492Z" fill="#D6483D"/>
</svg>
