<svg width="28" height="22" viewBox="0 0 28 22" fill="none" xmlns="http://www.w3.org/2000/svg">
<path d="M25.4458 2.58527L27.653 0.464484V0H20.0088L14.561 13.6249L8.36432 0H0.349263V0.464484L2.92733 3.58265C3.17938 3.81309 3.309 4.15156 3.2766 4.49002V16.743C3.35581 17.1859 3.21538 17.636 2.90573 17.9565L0 21.4959V21.9532H8.2311V21.4887L5.32897 17.9601C5.17347 17.8022 5.05651 17.6106 4.98719 17.4001C4.91787 17.1896 4.89806 16.966 4.9293 16.7466V6.14632L12.1558 21.9604H12.9948L19.2095 6.14632V18.745C19.2095 19.0763 19.2095 19.1447 18.9935 19.3643L16.7574 21.5355V22H27.6026V21.5355L25.4458 19.4147C25.2586 19.2707 25.1614 19.0295 25.201 18.7954V3.20458C25.1823 3.08888 25.1952 2.97028 25.2383 2.86129C25.2814 2.7523 25.3531 2.65695 25.4458 2.58527Z" fill="#D6483D"/>
</svg>
