<svg width="28" height="24" viewBox="0 0 28 24" fill="none" xmlns="http://www.w3.org/2000/svg">
<path d="M7.61311 23.9907C9.83073 24.0649 12.0407 23.6938 14.1125 22.8994C16.1842 22.1049 18.0757 20.9032 19.6752 19.3653C21.2746 17.8274 22.5495 15.9845 23.4245 13.9455C24.2996 11.9064 24.757 9.71269 24.7698 7.49387C25.7861 6.23623 26.5408 4.78813 26.9894 3.23469C27.0229 3.11195 27.0202 2.98215 26.9816 2.86092C26.9431 2.73968 26.8703 2.63219 26.772 2.55137C26.6738 2.47054 26.5542 2.41985 26.4278 2.40539C26.3014 2.39092 26.1736 2.4133 26.0596 2.46983C25.5279 2.72576 24.9293 2.80843 24.3482 2.7062C23.767 2.60396 23.2326 2.32196 22.8202 1.89994C22.2937 1.32342 21.6569 0.858437 20.9474 0.532544C20.238 0.206652 19.4703 0.0264806 18.6899 0.00270571C17.9095 -0.0210692 17.1323 0.112036 16.4043 0.394135C15.6764 0.676234 15.0124 1.10159 14.4518 1.64499C13.6842 2.38834 13.122 3.31761 12.8198 4.34249C12.5176 5.36737 12.4857 6.453 12.7271 7.49387C7.70309 7.79381 4.25376 5.40927 1.49428 2.1399C1.41138 2.04602 1.30294 1.97831 1.1822 1.94504C1.06145 1.91177 0.933635 1.91438 0.814351 1.95255C0.695066 1.99072 0.589478 2.0628 0.51048 2.15999C0.431483 2.25717 0.382495 2.37526 0.369498 2.49983C-0.156197 5.4159 0.22302 8.42302 1.45622 11.1173C2.68941 13.8116 4.71753 16.0639 7.26818 17.5719C5.55796 19.5333 3.15628 20.7583 0.564461 20.9913C0.425606 21.0143 0.297425 21.0802 0.197858 21.1797C0.0982916 21.2792 0.0323224 21.4073 0.00918297 21.5461C-0.0139565 21.685 0.0068922 21.8276 0.068811 21.954C0.13073 22.0804 0.23062 22.1842 0.354501 22.251C2.60935 23.3779 5.09244 23.973 7.61311 23.9907Z" fill="#D6483D"/>
</svg>
