<svg width="92" height="59" viewBox="0 0 92 59" fill="none" xmlns="http://www.w3.org/2000/svg">
<path d="M47.9752 6.51458C47.7323 6.31626 47.4844 6.12786 47.2365 5.93945L5.94141 47.2345C6.12981 47.4824 6.32317 47.7303 6.51653 47.9732L47.9752 6.51458Z" fill="#F9B34A"/>
<path d="M37.8835 1.21034C37.5414 1.11118 37.1943 1.01698 36.8522 0.927734L0.931641 36.8483C1.02088 37.1954 1.11509 37.5375 1.21425 37.8796L37.8835 1.21034Z" fill="#F9B34A"/>
<path d="M44.9743 4.38342C44.7016 4.21485 44.4239 4.05123 44.1512 3.89258L3.90234 44.1415C4.061 44.4191 4.22461 44.6918 4.39318 44.9645L44.9743 4.38342Z" fill="#F9B34A"/>
<path d="M41.6219 2.60367C41.3195 2.46485 41.0121 2.33098 40.7047 2.20703L2.21094 40.7008C2.33985 41.0082 2.46875 41.3156 2.60757 41.618L41.6219 2.60367Z" fill="#F9B34A"/>
<path d="M33.6743 0.292219C33.2826 0.237682 32.891 0.188101 32.4993 0.148438L0.148438 32.4993C0.188101 32.891 0.237685 33.2826 0.292223 33.6743L33.6743 0.292219Z" fill="#F9B34A"/>
<path d="M50.3295 8.63184C50.2204 8.52276 50.1064 8.41369 49.9973 8.30957L8.31055 49.9963C8.41962 50.1054 8.52374 50.2194 8.63281 50.3285C8.74189 50.4375 8.85593 50.5466 8.965 50.6507L50.6517 8.96402C50.5476 8.84999 50.4385 8.74092 50.3295 8.63184Z" fill="#F9B34A"/>
<path d="M28.8356 0C28.3745 0.00991597 27.9184 0.0297465 27.4573 0.0644524L0.0644411 27.4573C0.0346932 27.9184 0.00991597 28.3745 0 28.8356L28.8356 0Z" fill="#F9B34A"/>
<path d="M0.71875 22.9901L22.995 0.713867C22.4 0.847733 21.81 1.00143 21.225 1.17L1.17489 21.2201C1.00136 21.8051 0.852616 22.3951 0.71875 22.9901Z" fill="#F9B34A"/>
<path d="M58.8951 31.5033C58.9249 31.0422 58.9497 30.5861 58.9596 30.125L30.1289 58.9557C30.59 58.9458 31.0461 58.9259 31.5072 58.8912L58.8951 31.5033Z" fill="#F9B34A"/>
<path d="M58.808 26.4563C58.7684 26.0646 58.7188 25.6729 58.6642 25.2812L25.2871 58.6584C25.6788 58.7129 26.0705 58.7625 26.4621 58.8022L58.808 26.4563Z" fill="#F9B34A"/>
<path d="M14.5078 4.07031C12.4105 5.30981 10.4373 6.82695 8.63256 8.6267C6.83281 10.4264 5.31071 12.4047 4.07617 14.5019L14.5078 4.07031Z" fill="#F9B34A"/>
<path d="M57.7908 37.7348C57.9594 37.1498 58.1131 36.5598 58.2469 35.9648L35.9707 58.2411C36.5657 58.1072 37.1557 57.9535 37.7407 57.7849L57.7908 37.7348Z" fill="#F9B34A"/>
<path d="M44.459 54.8847C46.5562 53.6452 48.5295 52.1281 50.3342 50.3283C52.1339 48.5286 53.656 46.5504 54.8906 44.4531L44.459 54.8847Z" fill="#F9B34A"/>
<path d="M55.0641 14.8094C54.9055 14.5317 54.7419 14.259 54.5733 13.9863L13.9922 54.5674C14.2649 54.736 14.5425 54.8996 14.8152 55.0583L55.0641 14.8094Z" fill="#F9B34A"/>
<path d="M53.0201 11.7251C52.8317 11.4772 52.6384 11.2293 52.445 10.9863L10.9863 52.445C11.2293 52.6433 11.4772 52.8317 11.7251 53.0201L53.0201 11.7251Z" fill="#F9B34A"/>
<path d="M58.028 22.1026C57.9388 21.7555 57.8446 21.4134 57.7454 21.0713L21.0762 57.7405C21.4183 57.8397 21.7604 57.9339 22.1074 58.0231L58.028 22.1026Z" fill="#F9B34A"/>
<path d="M56.7548 18.2551C56.6258 17.9477 56.4969 17.6403 56.3581 17.3379L17.3438 56.3523C17.6462 56.4911 17.9536 56.62 18.261 56.7489L56.7548 18.2551Z" fill="#F9B34A"/>
<circle cx="61.7266" cy="29.5" r="29" stroke="#F9B34A"/>
</svg>
